<mxfile host="app.diagrams.net" modified="2024-05-14T15:32:33.390Z" agent="Mozilla/5.0 (Macintosh; Intel Mac OS X 10_15_7) AppleWebKit/605.1.15 (KHTML, like Gecko) Version/17.4.1 Safari/605.1.15" etag="fhS8diNeAF0Kz2AUzhhZ" version="24.4.0" type="github">
  <diagram name="Seite-1" id="6Bezv-uRvZzMx2sx_CN4">
    <mxGraphModel dx="1430" dy="874" grid="1" gridSize="10" guides="1" tooltips="1" connect="1" arrows="1" fold="1" page="1" pageScale="1" pageWidth="827" pageHeight="1169" math="0" shadow="0">
      <root>
        <mxCell id="0" />
        <mxCell id="1" parent="0" />
        <mxCell id="WdZaHprNNJrOk9ohw9Yr-24" value="" style="whiteSpace=wrap;html=1;fillColor=none;strokeColor=#FF6666;" vertex="1" parent="1">
          <mxGeometry x="160" y="290" width="510" height="240" as="geometry" />
        </mxCell>
        <mxCell id="b-vgWnAGVi1PlupROuwk-1" value="" style="endArrow=none;dashed=1;html=1;rounded=0;" parent="1" source="b-vgWnAGVi1PlupROuwk-8" edge="1">
          <mxGeometry width="50" height="50" relative="1" as="geometry">
            <mxPoint x="100" y="540" as="sourcePoint" />
            <mxPoint x="100" y="140" as="targetPoint" />
          </mxGeometry>
        </mxCell>
        <mxCell id="b-vgWnAGVi1PlupROuwk-5" value="&lt;b&gt;User&lt;/b&gt;" style="rounded=0;whiteSpace=wrap;html=1;fillColor=#dae8fc;strokeColor=#6c8ebf;" parent="1" vertex="1">
          <mxGeometry x="50" y="90" width="100" height="50" as="geometry" />
        </mxCell>
        <mxCell id="b-vgWnAGVi1PlupROuwk-6" value="&lt;b&gt;Frontend&lt;/b&gt;" style="rounded=0;whiteSpace=wrap;html=1;fillColor=#dae8fc;strokeColor=#6c8ebf;" parent="1" vertex="1">
          <mxGeometry x="210" y="90" width="100" height="50" as="geometry" />
        </mxCell>
        <mxCell id="b-vgWnAGVi1PlupROuwk-9" value="" style="endArrow=none;dashed=1;html=1;rounded=0;" parent="1" target="b-vgWnAGVi1PlupROuwk-8" edge="1">
          <mxGeometry width="50" height="50" relative="1" as="geometry">
            <mxPoint x="100" y="780" as="sourcePoint" />
            <mxPoint x="100" y="140" as="targetPoint" />
          </mxGeometry>
        </mxCell>
        <mxCell id="b-vgWnAGVi1PlupROuwk-8" value="" style="rounded=0;whiteSpace=wrap;html=1;" parent="1" vertex="1">
          <mxGeometry x="90" y="150" width="20" height="600" as="geometry" />
        </mxCell>
        <mxCell id="b-vgWnAGVi1PlupROuwk-12" value="" style="endArrow=none;dashed=1;html=1;rounded=0;" parent="1" target="b-vgWnAGVi1PlupROuwk-6" edge="1">
          <mxGeometry width="50" height="50" relative="1" as="geometry">
            <mxPoint x="260" y="780" as="sourcePoint" />
            <mxPoint x="260" y="140" as="targetPoint" />
          </mxGeometry>
        </mxCell>
        <mxCell id="b-vgWnAGVi1PlupROuwk-13" value="" style="rounded=0;whiteSpace=wrap;html=1;" parent="1" vertex="1">
          <mxGeometry x="250" y="150" width="20" height="600" as="geometry" />
        </mxCell>
        <mxCell id="b-vgWnAGVi1PlupROuwk-15" value="Backend&lt;div&gt;(mod_main)&lt;/div&gt;" style="rounded=0;whiteSpace=wrap;html=1;fillColor=#dae8fc;strokeColor=#6c8ebf;fontStyle=1" parent="1" vertex="1">
          <mxGeometry x="364" y="90" width="100" height="50" as="geometry" />
        </mxCell>
        <mxCell id="b-vgWnAGVi1PlupROuwk-16" value="" style="endArrow=none;dashed=1;html=1;rounded=0;fontStyle=1" parent="1" target="b-vgWnAGVi1PlupROuwk-15" edge="1">
          <mxGeometry width="50" height="50" relative="1" as="geometry">
            <mxPoint x="414" y="780" as="sourcePoint" />
            <mxPoint x="414" y="140" as="targetPoint" />
          </mxGeometry>
        </mxCell>
        <mxCell id="b-vgWnAGVi1PlupROuwk-17" value="" style="rounded=0;whiteSpace=wrap;html=1;fontStyle=1" parent="1" vertex="1">
          <mxGeometry x="404" y="150" width="20" height="600" as="geometry" />
        </mxCell>
        <mxCell id="b-vgWnAGVi1PlupROuwk-18" value="&lt;b&gt;DB&lt;/b&gt;" style="rounded=0;whiteSpace=wrap;html=1;fillColor=#dae8fc;strokeColor=#6c8ebf;" parent="1" vertex="1">
          <mxGeometry x="710" y="90" width="100" height="50" as="geometry" />
        </mxCell>
        <mxCell id="b-vgWnAGVi1PlupROuwk-19" value="" style="endArrow=none;dashed=1;html=1;rounded=0;" parent="1" source="b-vgWnAGVi1PlupROuwk-20" target="b-vgWnAGVi1PlupROuwk-18" edge="1">
          <mxGeometry width="50" height="50" relative="1" as="geometry">
            <mxPoint x="760" y="780" as="sourcePoint" />
            <mxPoint x="760" y="140" as="targetPoint" />
          </mxGeometry>
        </mxCell>
        <mxCell id="b-vgWnAGVi1PlupROuwk-21" value="" style="endArrow=none;dashed=1;html=1;rounded=0;" parent="1" target="b-vgWnAGVi1PlupROuwk-20" edge="1">
          <mxGeometry width="50" height="50" relative="1" as="geometry">
            <mxPoint x="760" y="780" as="sourcePoint" />
            <mxPoint x="760" y="140" as="targetPoint" />
          </mxGeometry>
        </mxCell>
        <mxCell id="b-vgWnAGVi1PlupROuwk-20" value="" style="rounded=0;whiteSpace=wrap;html=1;" parent="1" vertex="1">
          <mxGeometry x="750" y="220" width="20" height="50" as="geometry" />
        </mxCell>
        <mxCell id="WdZaHprNNJrOk9ohw9Yr-1" value="" style="shape=umlActor;verticalLabelPosition=bottom;verticalAlign=top;html=1;outlineConnect=0;" vertex="1" parent="1">
          <mxGeometry x="85" y="20" width="30" height="60" as="geometry" />
        </mxCell>
        <mxCell id="WdZaHprNNJrOk9ohw9Yr-2" value="" style="endArrow=classic;html=1;rounded=0;entryX=-0.15;entryY=0.068;entryDx=0;entryDy=0;entryPerimeter=0;" edge="1" parent="1" target="b-vgWnAGVi1PlupROuwk-13">
          <mxGeometry width="50" height="50" relative="1" as="geometry">
            <mxPoint x="110" y="190" as="sourcePoint" />
            <mxPoint x="160" y="140" as="targetPoint" />
          </mxGeometry>
        </mxCell>
        <mxCell id="WdZaHprNNJrOk9ohw9Yr-3" value="" style="endArrow=classic;html=1;rounded=0;entryX=-0.025;entryY=0.082;entryDx=0;entryDy=0;entryPerimeter=0;" edge="1" parent="1" target="b-vgWnAGVi1PlupROuwk-17">
          <mxGeometry width="50" height="50" relative="1" as="geometry">
            <mxPoint x="270" y="200" as="sourcePoint" />
            <mxPoint x="430" y="201" as="targetPoint" />
          </mxGeometry>
        </mxCell>
        <mxCell id="WdZaHprNNJrOk9ohw9Yr-4" value="sendloginData()" style="edgeLabel;html=1;align=center;verticalAlign=middle;resizable=0;points=[];" vertex="1" connectable="0" parent="WdZaHprNNJrOk9ohw9Yr-3">
          <mxGeometry x="0.2233" y="1" relative="1" as="geometry">
            <mxPoint x="-23" y="-9" as="offset" />
          </mxGeometry>
        </mxCell>
        <mxCell id="WdZaHprNNJrOk9ohw9Yr-5" value="" style="endArrow=classic;html=1;rounded=0;entryX=-0.15;entryY=0.1;entryDx=0;entryDy=0;entryPerimeter=0;" edge="1" parent="1" target="WdZaHprNNJrOk9ohw9Yr-16">
          <mxGeometry width="50" height="50" relative="1" as="geometry">
            <mxPoint x="424" y="210" as="sourcePoint" />
            <mxPoint x="584" y="210" as="targetPoint" />
          </mxGeometry>
        </mxCell>
        <mxCell id="WdZaHprNNJrOk9ohw9Yr-6" value="checkLogin(user credentials)" style="edgeLabel;html=1;align=center;verticalAlign=middle;resizable=0;points=[];" vertex="1" connectable="0" parent="WdZaHprNNJrOk9ohw9Yr-5">
          <mxGeometry x="-0.1529" y="-2" relative="1" as="geometry">
            <mxPoint x="18" y="-12" as="offset" />
          </mxGeometry>
        </mxCell>
        <mxCell id="WdZaHprNNJrOk9ohw9Yr-11" value="" style="endArrow=classic;html=1;rounded=0;exitX=-0.02;exitY=0.302;exitDx=0;exitDy=0;dashed=1;exitPerimeter=0;" edge="1" parent="1">
          <mxGeometry width="50" height="50" relative="1" as="geometry">
            <mxPoint x="403.60000000000014" y="351.20000000000005" as="sourcePoint" />
            <mxPoint x="270" y="350" as="targetPoint" />
          </mxGeometry>
        </mxCell>
        <mxCell id="WdZaHprNNJrOk9ohw9Yr-12" value="loginPage(msg)" style="edgeLabel;html=1;align=center;verticalAlign=middle;resizable=0;points=[];" vertex="1" connectable="0" parent="WdZaHprNNJrOk9ohw9Yr-11">
          <mxGeometry x="-0.2297" y="1" relative="1" as="geometry">
            <mxPoint x="-16" y="-10" as="offset" />
          </mxGeometry>
        </mxCell>
        <mxCell id="WdZaHprNNJrOk9ohw9Yr-13" value="" style="endArrow=classic;html=1;rounded=0;exitX=-0.04;exitY=0.315;exitDx=0;exitDy=0;exitPerimeter=0;entryX=1.02;entryY=0.315;entryDx=0;entryDy=0;entryPerimeter=0;dashed=1;" edge="1" parent="1">
          <mxGeometry width="50" height="50" relative="1" as="geometry">
            <mxPoint x="249.40000000000003" y="359.9999999999999" as="sourcePoint" />
            <mxPoint x="110.6000000000001" y="359.9999999999999" as="targetPoint" />
          </mxGeometry>
        </mxCell>
        <mxCell id="WdZaHprNNJrOk9ohw9Yr-14" value="Backend&lt;div&gt;(mod_auth)&lt;/div&gt;" style="rounded=0;whiteSpace=wrap;html=1;fillColor=#dae8fc;strokeColor=#6c8ebf;fontStyle=1" vertex="1" parent="1">
          <mxGeometry x="550" y="90" width="100" height="50" as="geometry" />
        </mxCell>
        <mxCell id="WdZaHprNNJrOk9ohw9Yr-15" value="" style="endArrow=none;dashed=1;html=1;rounded=0;fontStyle=1" edge="1" parent="1" target="WdZaHprNNJrOk9ohw9Yr-14">
          <mxGeometry width="50" height="50" relative="1" as="geometry">
            <mxPoint x="600" y="780" as="sourcePoint" />
            <mxPoint x="600" y="140" as="targetPoint" />
          </mxGeometry>
        </mxCell>
        <mxCell id="WdZaHprNNJrOk9ohw9Yr-16" value="" style="rounded=0;whiteSpace=wrap;html=1;fontStyle=1" vertex="1" parent="1">
          <mxGeometry x="590" y="150" width="20" height="600" as="geometry" />
        </mxCell>
        <mxCell id="WdZaHprNNJrOk9ohw9Yr-17" value="" style="endArrow=classic;html=1;rounded=0;entryX=0;entryY=0;entryDx=0;entryDy=0;" edge="1" parent="1" target="b-vgWnAGVi1PlupROuwk-20">
          <mxGeometry width="50" height="50" relative="1" as="geometry">
            <mxPoint x="610" y="220" as="sourcePoint" />
            <mxPoint x="740" y="220" as="targetPoint" />
          </mxGeometry>
        </mxCell>
        <mxCell id="WdZaHprNNJrOk9ohw9Yr-18" value="get(user credentials)" style="edgeLabel;html=1;align=center;verticalAlign=middle;resizable=0;points=[];fontSize=10;" vertex="1" connectable="0" parent="WdZaHprNNJrOk9ohw9Yr-17">
          <mxGeometry x="-0.1529" y="-2" relative="1" as="geometry">
            <mxPoint x="11" y="-12" as="offset" />
          </mxGeometry>
        </mxCell>
        <mxCell id="WdZaHprNNJrOk9ohw9Yr-19" value="" style="endArrow=classic;html=1;rounded=0;dashed=1;exitX=-0.179;exitY=0.983;exitDx=0;exitDy=0;exitPerimeter=0;entryX=1.107;entryY=0.2;entryDx=0;entryDy=0;entryPerimeter=0;" edge="1" parent="1" source="b-vgWnAGVi1PlupROuwk-20" target="WdZaHprNNJrOk9ohw9Yr-16">
          <mxGeometry width="50" height="50" relative="1" as="geometry">
            <mxPoint x="730" y="280" as="sourcePoint" />
            <mxPoint x="650" y="269" as="targetPoint" />
          </mxGeometry>
        </mxCell>
        <mxCell id="WdZaHprNNJrOk9ohw9Yr-20" value="response(credentials)" style="edgeLabel;html=1;align=center;verticalAlign=middle;resizable=0;points=[];" vertex="1" connectable="0" parent="WdZaHprNNJrOk9ohw9Yr-19">
          <mxGeometry x="-0.2297" y="1" relative="1" as="geometry">
            <mxPoint x="-16" y="-10" as="offset" />
          </mxGeometry>
        </mxCell>
        <mxCell id="WdZaHprNNJrOk9ohw9Yr-21" value="" style="endArrow=classic;html=1;rounded=0;exitX=1.04;exitY=0.217;exitDx=0;exitDy=0;exitPerimeter=0;entryX=1.06;entryY=0.327;entryDx=0;entryDy=0;entryPerimeter=0;" edge="1" parent="1" target="WdZaHprNNJrOk9ohw9Yr-32">
          <mxGeometry width="50" height="50" relative="1" as="geometry">
            <mxPoint x="424" y="460" as="sourcePoint" />
            <mxPoint x="450" y="490" as="targetPoint" />
            <Array as="points">
              <mxPoint x="464" y="460" />
              <mxPoint x="464" y="490" />
            </Array>
          </mxGeometry>
        </mxCell>
        <mxCell id="WdZaHprNNJrOk9ohw9Yr-22" value="createSession()" style="edgeLabel;html=1;align=center;verticalAlign=middle;resizable=0;points=[];" vertex="1" connectable="0" parent="WdZaHprNNJrOk9ohw9Yr-21">
          <mxGeometry x="0.1243" relative="1" as="geometry">
            <mxPoint x="40" y="-9" as="offset" />
          </mxGeometry>
        </mxCell>
        <mxCell id="WdZaHprNNJrOk9ohw9Yr-25" value="&lt;font style=&quot;font-size: 10px;&quot;&gt;alt&lt;/font&gt;" style="rounded=0;whiteSpace=wrap;html=1;strokeColor=#FF6666;" vertex="1" parent="1">
          <mxGeometry x="160" y="290" width="40" height="20" as="geometry" />
        </mxCell>
        <mxCell id="WdZaHprNNJrOk9ohw9Yr-26" value="&lt;font style=&quot;font-size: 10px;&quot;&gt;[wrong password]&lt;/font&gt;" style="rounded=0;whiteSpace=wrap;html=1;strokeColor=#666666;fillColor=#BFBFBF;fontColor=#333333;" vertex="1" parent="1">
          <mxGeometry x="540" y="300" width="120" height="20" as="geometry" />
        </mxCell>
        <mxCell id="WdZaHprNNJrOk9ohw9Yr-27" value="&lt;font style=&quot;font-size: 10px;&quot;&gt;[else: login permitted]&lt;/font&gt;" style="rounded=0;whiteSpace=wrap;html=1;strokeColor=#666666;fillColor=#BFBFBF;fontColor=#333333;" vertex="1" parent="1">
          <mxGeometry x="540" y="420" width="120" height="20" as="geometry" />
        </mxCell>
        <mxCell id="WdZaHprNNJrOk9ohw9Yr-28" value="" style="endArrow=classic;html=1;rounded=0;dashed=1;exitX=-0.179;exitY=0.317;exitDx=0;exitDy=0;exitPerimeter=0;entryX=1.207;entryY=0.314;entryDx=0;entryDy=0;entryPerimeter=0;" edge="1" parent="1" source="WdZaHprNNJrOk9ohw9Yr-16" target="b-vgWnAGVi1PlupROuwk-17">
          <mxGeometry width="50" height="50" relative="1" as="geometry">
            <mxPoint x="550" y="340" as="sourcePoint" />
            <mxPoint x="480" y="340" as="targetPoint" />
          </mxGeometry>
        </mxCell>
        <mxCell id="WdZaHprNNJrOk9ohw9Yr-29" value="loginFailed()" style="edgeLabel;html=1;align=center;verticalAlign=middle;resizable=0;points=[];" vertex="1" connectable="0" parent="WdZaHprNNJrOk9ohw9Yr-28">
          <mxGeometry x="-0.2297" y="1" relative="1" as="geometry">
            <mxPoint x="-16" y="-10" as="offset" />
          </mxGeometry>
        </mxCell>
        <mxCell id="WdZaHprNNJrOk9ohw9Yr-30" value="" style="endArrow=classic;html=1;rounded=0;dashed=1;exitX=0;exitY=0.5;exitDx=0;exitDy=0;entryX=1;entryY=0.5;entryDx=0;entryDy=0;" edge="1" parent="1" source="WdZaHprNNJrOk9ohw9Yr-16" target="b-vgWnAGVi1PlupROuwk-17">
          <mxGeometry width="50" height="50" relative="1" as="geometry">
            <mxPoint x="572" y="462" as="sourcePoint" />
            <mxPoint x="414" y="460" as="targetPoint" />
          </mxGeometry>
        </mxCell>
        <mxCell id="WdZaHprNNJrOk9ohw9Yr-31" value="login(userdetails)" style="edgeLabel;html=1;align=center;verticalAlign=middle;resizable=0;points=[];" vertex="1" connectable="0" parent="WdZaHprNNJrOk9ohw9Yr-30">
          <mxGeometry x="-0.2297" y="1" relative="1" as="geometry">
            <mxPoint x="-36" y="-11" as="offset" />
          </mxGeometry>
        </mxCell>
        <mxCell id="WdZaHprNNJrOk9ohw9Yr-32" value="" style="rounded=0;whiteSpace=wrap;html=1;" vertex="1" parent="1">
          <mxGeometry x="424" y="480" width="10" height="30" as="geometry" />
        </mxCell>
        <mxCell id="WdZaHprNNJrOk9ohw9Yr-33" value="" style="endArrow=classic;html=1;rounded=0;exitX=0;exitY=0;exitDx=0;exitDy=0;dashed=1;entryX=1.022;entryY=0.583;entryDx=0;entryDy=0;entryPerimeter=0;" edge="1" parent="1" source="WdZaHprNNJrOk9ohw9Yr-35" target="b-vgWnAGVi1PlupROuwk-13">
          <mxGeometry width="50" height="50" relative="1" as="geometry">
            <mxPoint x="393.60000000000014" y="495.6" as="sourcePoint" />
            <mxPoint x="260" y="494.4" as="targetPoint" />
          </mxGeometry>
        </mxCell>
        <mxCell id="WdZaHprNNJrOk9ohw9Yr-34" value="dashboard(session)" style="edgeLabel;html=1;align=center;verticalAlign=middle;resizable=0;points=[];" vertex="1" connectable="0" parent="WdZaHprNNJrOk9ohw9Yr-33">
          <mxGeometry x="-0.2297" y="1" relative="1" as="geometry">
            <mxPoint x="-16" y="-10" as="offset" />
          </mxGeometry>
        </mxCell>
        <mxCell id="WdZaHprNNJrOk9ohw9Yr-35" value="" style="rounded=0;whiteSpace=wrap;html=1;fillColor=#DBDBDB;strokeColor=#36393d;" vertex="1" parent="1">
          <mxGeometry x="404" y="500" width="20" height="140" as="geometry" />
        </mxCell>
        <mxCell id="WdZaHprNNJrOk9ohw9Yr-36" value="{session active}" style="text;html=1;align=center;verticalAlign=middle;whiteSpace=wrap;rounded=0;" vertex="1" parent="1">
          <mxGeometry x="370" y="530" width="90" height="30" as="geometry" />
        </mxCell>
        <mxCell id="WdZaHprNNJrOk9ohw9Yr-37" value="" style="endArrow=classic;html=1;rounded=0;exitX=-0.04;exitY=0.315;exitDx=0;exitDy=0;exitPerimeter=0;entryX=1.02;entryY=0.315;entryDx=0;entryDy=0;entryPerimeter=0;dashed=1;" edge="1" parent="1">
          <mxGeometry width="50" height="50" relative="1" as="geometry">
            <mxPoint x="250.00000000000003" y="509.9999999999999" as="sourcePoint" />
            <mxPoint x="111.20000000000009" y="509.9999999999999" as="targetPoint" />
          </mxGeometry>
        </mxCell>
      </root>
    </mxGraphModel>
  </diagram>
</mxfile>
